<?xml version="1.0" encoding="utf-8"?>
<!-- Generator: Adobe Illustrator 21.0.2, SVG Export Plug-In . SVG Version: 6.00 Build 0)  -->
<svg version="1.1" id="Layer_1" xmlns="http://www.w3.org/2000/svg" xmlns:xlink="http://www.w3.org/1999/xlink" x="0px" y="0px"
	 viewBox="0 0 600 600" style="enable-background:new 0 0 600 600;" xml:space="preserve">
<style type="text/css">
	.st0{display:none;}
	.st1{fill:#FFFFFF;}
</style>
<g id="CesOgM.tif" class="st0">
	
		<image style="display:inline;overflow:visible;enable-background:new    ;" width="271" height="208" id="Layer_0" xlink:href="D20638588CF243C6.png"  transform="matrix(1 0 0 1 166 196)">
	</image>
</g>
<g>
	<polygon class="st1" points="46.9,256.1 70.9,322 82.9,322 82.9,213.6 66.4,213.6 66.4,274.8 43,213.6 30.4,213.6 30.4,322 
		46.9,322 	"/>
	<polygon class="st1" points="148.1,308.5 120.7,308.5 120.7,272.6 140.2,272.6 140.2,259.2 120.7,259.2 120.7,227.1 148.1,227.1 
		148.1,213.6 102.9,213.6 102.9,322 148.1,322 	"/>
	<polygon class="st1" points="219.2,213.6 212.8,263.9 210.6,284.3 208.6,263.9 202.2,213.6 187.8,213.6 181.5,263.9 179.4,284.3 
		177.2,263.9 170.9,213.6 156.2,213.6 172.2,322 186.5,322 192.9,271.8 195,251.3 197.1,271.8 203.5,322 217.8,322 233.8,213.6 	"/>
	<polygon class="st1" points="303.5,322 320.7,322 320.7,286.9 343.9,213.6 326.5,213.6 312.1,264.1 297.7,213.6 280.3,213.6 
		303.5,286.9 	"/>
	<path class="st1" d="M399.5,312c2.2-3.2,3.8-7,4.8-11.3c1-4.2,1.5-9.2,1.5-14.7v-38.2c0-11.3-2.2-20.1-6.7-26.1
		c-4.5-6.1-11.9-9.2-21.9-9.2c-5.1,0-9.6,0.8-13.3,2.4c-3.8,1.6-6.8,4-9,7.2c-2.2,3.1-3.8,6.9-4.8,11.1s-1.5,9.1-1.5,14.7v38.2
		c0,5.6,0.5,10.5,1.5,14.8s2.6,8.1,4.8,11.2c2.2,3.2,5.2,5.7,9,7.4c3.7,1.7,8.2,2.5,13.4,2.5c5.1,0,9.6-0.9,13.3-2.5
		C394.3,317.8,397.3,315.2,399.5,312z M389.5,244.1v45.7c0,6-0.9,10.5-2.7,13.5c-1.7,2.9-4.9,4.3-9.5,4.3c-4.7,0-7.8-1.4-9.5-4.3
		c-1.8-3-2.7-7.5-2.7-13.5v-45.7c0-5.9,0.9-10.3,2.7-13.1c1.7-2.7,4.8-4,9.6-4c4.7,0,7.9,1.3,9.6,4
		C388.6,233.8,389.5,238.2,389.5,244.1z"/>
	<path class="st1" d="M438.2,272.6h9.6l15.3,49.3h17.2l-17.2-53.6c4.1-1.7,7.3-4.7,9.5-8.9c2.3-4.4,3.5-9.9,3.5-16.4
		c0-10.5-3-18.1-9-22.7c-5.9-4.5-14.7-6.8-26.2-6.8h-20v108.3h17.2v-49.2H438.2z M438.2,227.1h2.8c6,0,10.6,1.3,13.6,3.8
		c2.9,2.5,4.4,6.6,4.4,12.3c0,5.7-1.5,9.8-4.4,12.3c-3,2.5-7.5,3.8-13.6,3.8h-2.8V227.1z"/>
	<polygon class="st1" points="545.5,322 522.1,256.5 542.4,213.6 523.7,213.6 505.7,255.2 505.7,213.6 490.5,213.6 490.5,322 
		505.7,322 505.7,287 511.1,274.5 526.9,322 	"/>
	<path class="st1" d="M36.7,335.4l-14.5,77.1h11.6l3.5-18.8h10.1l3.5,18.8h11.6l-14.6-77.1H36.7z M45.9,383.6h-7.1l3.5-24
		L45.9,383.6z"/>
	<path class="st1" d="M79.7,335.4H64v77.1h15.6c7.2,0,12.4-2.1,15.5-6.3c3-4.1,4.5-10.4,4.5-18.9v-29.5c0-8.2-1.5-13.9-4.5-17.3
		S86.9,335.4,79.7,335.4z M75.5,345.5h4c1,0,1.8,0.1,2.6,0.2c0.8,0.1,1.4,0.3,2,0.5c0.5,0.2,0.9,0.5,1.3,0.8
		c0.4,0.5,0.8,0.9,1.1,1.3c0.3,0.3,0.5,0.9,0.7,1.5c0.2,0.8,0.4,1.5,0.5,2.1c0.1,0.6,0.2,1.4,0.3,2.5c0.1,1.1,0.1,2,0.1,2.8
		s0,1.9,0,3.3v25.8c0,2.2,0,3.8,0,4.9c0,1-0.1,2.3-0.3,3.9c-0.2,1.8-0.5,2.8-0.7,3.2c-0.4,0.7-0.9,1.5-1.5,2.3
		c-0.6,0.7-1.3,1.2-2.2,1.4c-1,0.3-2.3,0.4-3.7,0.4h-4.2C75.5,402.4,75.5,345.5,75.5,345.5z"/>
	<polygon class="st1" points="122.3,376.5 120.8,387.5 119.3,376.5 112.2,335.4 100.6,335.4 115.2,412.5 126.4,412.5 141,335.4 
		129.4,335.4 	"/>
	<polygon class="st1" points="143.9,412.5 171.9,412.5 171.9,402.4 155.4,402.4 155.4,377.8 167.2,377.8 167.2,367.6 155.4,367.6 
		155.4,345.5 171.9,345.5 171.9,335.4 143.9,335.4 	"/>
	<polygon class="st1" points="203.9,376.9 189.1,335.4 180.2,335.4 180.2,412.5 191.7,412.5 191.7,367.8 206.9,412.5 215.4,412.5 
		215.4,335.4 203.9,335.4 	"/>
	<polygon class="st1" points="218,347 229.9,347 229.9,412.5 241.4,412.5 241.4,347 253.2,347 253.2,335.4 218,335.4 	"/>
	<path class="st1" d="M281.7,384.8c0,2.3,0,4.2-0.1,5.8c-0.1,1.5-0.3,3.1-0.6,4.9c-0.3,1.7-0.8,3-1.3,3.9c-0.5,0.9-1.3,1.7-2.2,2.3
		c-1.9,1.2-5.1,1.2-7,0c-1-0.6-1.7-1.4-2.2-2.3c-0.5-1-1-2.3-1.3-3.9c-0.3-1.7-0.5-3.4-0.6-4.9s-0.1-3.5-0.1-5.8v-49.3h-10.9v49.3
		c0,3.5,0.2,6.6,0.5,9.4c0.4,2.8,1,5.4,1.8,7.8c0.9,2.5,2,4.5,3.4,6.2s3.2,3,5.4,3.9c2.2,0.9,4.7,1.4,7.5,1.4s5.3-0.5,7.5-1.4
		s4-2.2,5.4-3.9c1.4-1.6,2.5-3.7,3.4-6.2c0.8-2.4,1.5-5,1.8-7.8s0.5-5.9,0.5-9.4v-49.3h-10.9L281.7,384.8L281.7,384.8z"/>
	<path class="st1" d="M329.4,368.2c1.5-3.1,2.2-7.1,2.2-11.7c0-7.5-1.9-12.9-5.7-16.2c-3.8-3.3-9.3-4.9-16.6-4.9h-12.9v77.1h11.5
		v-34.8h5.3l9.5,34.8h11.5l-10.8-38C326.1,373.3,328.1,371.1,329.4,368.2z M308,345.5h1.3c3.6,0,6.4,0.9,8.2,2.5
		c1.8,1.7,2.6,4.5,2.6,8.5s-0.9,6.8-2.6,8.5c-1.8,1.7-4.5,2.5-8.2,2.5H308V345.5z"/>
	<polygon class="st1" points="339.5,412.5 367.5,412.5 367.5,402.4 351,402.4 351,377.8 362.8,377.8 362.8,367.6 351,367.6 
		351,345.5 367.5,345.5 367.5,335.4 339.5,335.4 	"/>
	<path class="st1" d="M432.2,348.5c-0.7-2.8-1.8-5.2-3.2-7.3c-1.4-2.2-3.4-3.8-5.8-4.9c-2.4-1.1-5.2-1.6-8.4-1.6
		c-2.9,0-5.5,0.5-7.8,1.4c-2.3,0.9-4.1,2.3-5.6,4c-1.4,1.7-2.6,3.7-3.5,6.2c-0.9,2.4-1.5,5-1.8,7.8c-0.3,2.7-0.5,5.8-0.5,9.2v21.4
		c0,3.4,0.2,6.5,0.5,9.2c0.4,2.7,1,5.4,1.8,7.8c0.9,2.5,2.1,4.6,3.5,6.2c1.5,1.7,3.3,3,5.6,4c2.2,0.9,4.8,1.4,7.8,1.4
		c3.4,0,6.4-0.6,8.8-1.9c2.5-1.3,4.4-3.1,5.9-5.5c1.4-2.3,2.4-5.1,3-8.1s0.9-6.5,0.9-10.4v-3.7h-11.5v3.7c0,1.8,0,3.4-0.1,4.8
		c-0.1,1.3-0.3,2.7-0.6,4.2c-0.3,1.4-0.7,2.5-1.2,3.3s-1.2,1.5-2,2s-1.9,0.8-3.1,0.8s-2.3-0.2-3.2-0.8c-0.9-0.5-1.6-1.2-2.2-2
		c-0.6-0.9-1-2-1.4-3.3c-0.4-1.4-0.6-2.8-0.8-4.2c-0.1-1.4-0.2-3-0.2-4.8v-26.8c0-2,0-3.8,0.1-5.1s0.3-2.7,0.6-4.2
		c0.3-1.3,0.7-2.4,1.3-3.2c0.5-0.7,1.2-1.3,2.2-1.8c0.9-0.5,2.1-0.7,3.5-0.7c1.1,0,2,0.1,2.8,0.4c0.7,0.2,1.3,0.6,1.8,1.1
		c0.5,0.6,0.9,1.2,1.3,1.8c0.3,0.6,0.6,1.5,0.8,2.5c0.2,1.1,0.3,2.2,0.4,3.1c0.1,1,0.1,2.3,0.1,3.7v3.4h11.5v-1c0-1.1,0-2,0-2.5
		C433.3,354.4,432.9,351.2,432.2,348.5z"/>
	<polygon class="st1" points="448.7,335.4 437.2,335.4 437.2,412.5 465.3,412.5 465.3,402.4 448.7,402.4 	"/>
	<path class="st1" d="M496.4,384.8c0,2.3,0,4.2-0.1,5.8c-0.1,1.5-0.3,3.1-0.7,4.9c-0.3,1.6-0.8,3-1.4,3.9c-0.6,0.9-1.4,1.7-2.4,2.3
		s-2.3,0.9-3.8,0.9s-2.8-0.3-3.8-0.9c-1-0.6-1.9-1.4-2.4-2.3c-0.6-1-1.1-2.3-1.4-3.9c-0.4-1.7-0.6-3.4-0.7-4.9s-0.1-3.5-0.1-5.8
		v-49.3h-11.5v49.3c0,3.5,0.2,6.6,0.6,9.4s1,5.4,1.9,7.8c0.9,2.5,2.2,4.5,3.7,6.2s3.5,3,5.8,3.9s5,1.4,8,1.4s5.7-0.5,8-1.4
		s4.3-2.2,5.8-3.9c1.5-1.6,2.7-3.7,3.7-6.2c0.9-2.4,1.6-5,1.9-7.8c0.4-2.8,0.6-5.9,0.6-9.4v-49.3h-11.5v49.3H496.4z"/>
	<path class="st1" d="M540.1,371.3c2.5-1.2,4.4-2.8,5.7-4.9c1.7-2.6,2.6-6.4,2.6-11.3c0-3.3-0.5-6.3-1.4-8.9
		c-0.9-2.6-2.3-4.7-4.1-6.3c-1.8-1.6-3.8-2.8-6.2-3.5c-2.3-0.8-4.9-1.1-7.8-1.1h-14v77.2h16.2c5.7,0,10.2-2.1,13.5-6.1
		c3.2-4,4.9-9.5,4.9-16.3c0-5.5-1-9.8-2.9-12.8C545,374.8,542.8,372.8,540.1,371.3z M538.7,390c0,4.4-0.8,7.6-2.4,9.5
		c-1.5,1.9-4,2.8-7.4,2.8h-3.3v-24.7h3.3c3.5,0,5.9,0.9,7.4,2.8C537.9,382.4,538.7,385.6,538.7,390z M525.5,367.6v-22.1
		c1,0,1.9,0,2.5,0c0.8,0,1.8,0.1,3.1,0.2c1.2,0.1,2,0.3,2.6,0.5s1.3,0.6,2.1,1.1c0.7,0.4,1.2,0.9,1.5,1.5c0.4,0.7,0.7,1.6,1,2.6
		s0.4,2.3,0.4,3.7c0,8.3-3.2,12.4-9.8,12.4L525.5,367.6L525.5,367.6z"/>
	<path class="st1" d="M579.8,338h-4.3l-2.6,10.7c-0.3,1.6-0.7,3.4-1.1,5.4h-0.1c-0.4-2.2-0.7-3.8-1-5.5l-2.6-10.6h-4.5l-1.1,21.6
		h2.9l0.6-12.7c0.1-2,0.1-4.1,0.1-6h0.2c0.3,1.9,0.8,4.5,1.1,6.1l2.7,12.3h3.1l2.7-12c0.4-2,0.9-4.5,1.3-6.4h0.2
		c0.1,2.3,0.1,4.4,0.1,6l0.6,12.7h3L579.8,338z"/>
	<polygon class="st1" points="549.1,341.6 553.9,341.6 553.9,359.6 556.9,359.6 556.9,341.6 561.7,341.6 561.7,338 549.1,338 	"/>
</g>
</svg>
