<?xml version="1.0" encoding="utf-8"?>
<!-- Generator: Adobe Illustrator 21.0.2, SVG Export Plug-In . SVG Version: 6.00 Build 0)  -->
<svg version="1.1" id="Layer_1" xmlns="http://www.w3.org/2000/svg" xmlns:xlink="http://www.w3.org/1999/xlink" x="0px" y="0px"
	 viewBox="0 0 1228.4 264" style="enable-background:new 0 0 1228.4 264;" xml:space="preserve">
<style type="text/css">
	.st0{display:none;}
	.st1{fill:#FFFFFF;}
</style>
<g id="CesOgM.tif" class="st0">
	
		<image style="display:inline;overflow:visible;" width="271" height="208" id="Layer_0" xlink:href="95BF58423475E4A1.png"  transform="matrix(1 0 0 1 145.8956 -80.5916)">
	</image>
</g>
<g>
	<polygon class="st1" points="35.9,80 59.9,145.9 71.9,145.9 71.9,37.6 55.4,37.6 55.4,98.7 32,37.6 19.4,37.6 19.4,145.9 
		35.9,145.9 	"/>
	<polygon class="st1" points="137.1,132.4 109.7,132.4 109.7,96.5 129.2,96.5 129.2,83.1 109.7,83.1 109.7,51 137.1,51 137.1,37.6 
		91.9,37.6 91.9,145.9 137.1,145.9 	"/>
	<polygon class="st1" points="208.2,37.6 201.8,87.8 199.6,108.2 197.6,87.8 191.2,37.6 176.8,37.6 170.5,87.8 168.4,108.2 
		166.2,87.8 159.9,37.6 145.2,37.6 161.2,145.9 175.5,145.9 181.9,95.6 184,75.2 186.1,95.6 192.5,145.9 206.8,145.9 222.8,37.6 	
		"/>
	<polygon class="st1" points="292.5,145.9 309.7,145.9 309.7,110.9 332.9,37.6 315.5,37.6 301.1,88 286.7,37.6 269.3,37.6 
		292.5,110.9 	"/>
	<path class="st1" d="M388.5,135.9c2.2-3.2,3.8-7,4.8-11.3c1-4.2,1.5-9.2,1.5-14.7V71.8c0-11.3-2.2-20.1-6.7-26.1
		c-4.5-6.1-11.9-9.2-21.9-9.2c-5.1,0-9.6,0.8-13.3,2.4c-3.8,1.6-6.8,4-9,7.2c-2.2,3.1-3.8,6.9-4.8,11.1c-1,4.2-1.5,9.1-1.5,14.7V110
		c0,5.6,0.5,10.5,1.5,14.8c1,4.3,2.6,8.1,4.8,11.2c2.2,3.2,5.2,5.7,9,7.4c3.7,1.7,8.2,2.5,13.4,2.5c5.1,0,9.6-0.9,13.3-2.5
		C383.3,141.7,386.3,139.1,388.5,135.9z M378.5,68v45.7c0,6-0.9,10.5-2.7,13.5c-1.7,2.9-4.9,4.3-9.5,4.3c-4.7,0-7.8-1.4-9.5-4.3
		c-1.8-3-2.7-7.5-2.7-13.5V68c0-5.9,0.9-10.3,2.7-13.1c1.7-2.7,4.8-4,9.6-4c4.7,0,7.9,1.3,9.6,4C377.6,57.7,378.5,62.1,378.5,68z"/>
	<path class="st1" d="M427.2,96.5h9.6l15.3,49.3h17.2l-17.2-53.6c4.1-1.7,7.3-4.7,9.5-8.9c2.3-4.4,3.5-9.9,3.5-16.4
		c0-10.5-3-18.1-9-22.7c-5.9-4.5-14.7-6.8-26.2-6.8h-20v108.3h17.2V96.5z M427.2,51h2.8c6,0,10.6,1.3,13.6,3.8
		c2.9,2.5,4.4,6.6,4.4,12.3c0,5.7-1.5,9.8-4.4,12.3c-3,2.5-7.5,3.8-13.6,3.8h-2.8V51z"/>
	<polygon class="st1" points="534.5,145.9 511.1,80.4 531.4,37.6 512.7,37.6 494.7,79.1 494.7,37.6 479.5,37.6 479.5,145.9 
		494.7,145.9 494.7,110.9 500.1,98.4 515.9,145.9 	"/>
	<path class="st1" d="M25.7,159.3l-14.6,77.1h11.6l3.5-18.8h10.1l3.5,18.8h11.6l-14.6-77.1H25.7z M34.9,207.6h-7.1l3.5-24
		L34.9,207.6z"/>
	<path class="st1" d="M68.7,159.3H53v77.1h15.6c7.2,0,12.4-2.1,15.5-6.3c3-4.1,4.5-10.4,4.5-18.9v-29.5c0-8.2-1.5-13.9-4.5-17.3
		C81.1,161,75.9,159.3,68.7,159.3z M64.5,169.4h4c1,0,1.8,0.1,2.6,0.2c0.8,0.1,1.4,0.3,2,0.5c0.5,0.2,0.9,0.5,1.3,0.8
		c0.4,0.5,0.8,0.9,1.1,1.3c0.3,0.3,0.5,0.9,0.7,1.5c0.2,0.8,0.4,1.5,0.5,2.1c0.1,0.6,0.2,1.4,0.3,2.5c0.1,1.1,0.1,2,0.1,2.8
		c0,0.8,0,1.9,0,3.3v25.8c0,2.2,0,3.8,0,4.9c0,1-0.1,2.3-0.3,3.9c-0.2,1.8-0.5,2.8-0.7,3.2c-0.4,0.7-0.9,1.5-1.5,2.3
		c-0.6,0.7-1.3,1.2-2.2,1.4c-1,0.3-2.3,0.4-3.7,0.4h-4.2V169.4z"/>
	<polygon class="st1" points="111.3,200.4 109.8,211.4 108.3,200.4 101.2,159.3 89.6,159.3 104.2,236.4 115.4,236.4 130,159.3 
		118.4,159.3 	"/>
	<polygon class="st1" points="132.9,236.4 160.9,236.4 160.9,226.3 144.4,226.3 144.4,201.6 156.2,201.6 156.2,191.5 144.4,191.5 
		144.4,169.4 160.9,169.4 160.9,159.3 132.9,159.3 	"/>
	<polygon class="st1" points="192.9,200.8 178.1,159.3 169.2,159.3 169.2,236.4 180.7,236.4 180.7,191.7 195.9,236.4 204.4,236.4 
		204.4,159.3 192.9,159.3 	"/>
	<polygon class="st1" points="207,170.9 218.8,170.9 218.8,236.4 230.4,236.4 230.4,170.9 242.2,170.9 242.2,159.3 207,159.3 	"/>
	<path class="st1" d="M270.7,208.6c0,2.3,0,4.2-0.1,5.8c-0.1,1.5-0.3,3.1-0.6,4.9c-0.3,1.7-0.8,3-1.3,3.9c-0.5,0.9-1.3,1.7-2.2,2.3
		c-1.9,1.2-5.1,1.2-7,0c-1-0.6-1.7-1.4-2.2-2.3c-0.5-1-1-2.3-1.3-3.9c-0.3-1.7-0.5-3.4-0.6-4.9c-0.1-1.5-0.1-3.5-0.1-5.8v-49.3
		h-10.9v49.3c0,3.5,0.2,6.6,0.5,9.4c0.4,2.8,1,5.4,1.8,7.8c0.9,2.5,2,4.5,3.4,6.2c1.4,1.7,3.2,3,5.4,3.9c2.2,0.9,4.7,1.4,7.5,1.4
		c2.8,0,5.3-0.5,7.5-1.4c2.2-0.9,4-2.2,5.4-3.9c1.4-1.6,2.5-3.7,3.4-6.2c0.8-2.4,1.5-5,1.8-7.8c0.3-2.8,0.5-5.9,0.5-9.4v-49.3h-10.9
		V208.6z"/>
	<path class="st1" d="M318.4,192.1c1.5-3.1,2.2-7.1,2.2-11.7c0-7.5-1.9-12.9-5.7-16.2c-3.8-3.3-9.3-4.9-16.6-4.9h-12.9v77.1H297
		v-34.8h5.3l9.5,34.8h11.5l-10.8-38C315.1,197.2,317.1,195,318.4,192.1z M297,169.4h1.3c3.6,0,6.4,0.9,8.2,2.5
		c1.8,1.7,2.6,4.5,2.6,8.5c0,4-0.9,6.8-2.6,8.5c-1.8,1.7-4.5,2.5-8.2,2.5H297V169.4z"/>
	<polygon class="st1" points="328.5,236.4 356.5,236.4 356.5,226.3 340,226.3 340,201.6 351.8,201.6 351.8,191.5 340,191.5 
		340,169.4 356.5,169.4 356.5,159.3 328.5,159.3 	"/>
	<path class="st1" d="M421.2,172.4c-0.7-2.8-1.8-5.2-3.2-7.3c-1.4-2.2-3.4-3.8-5.8-4.9c-2.4-1.1-5.2-1.6-8.4-1.6
		c-2.9,0-5.5,0.5-7.8,1.4c-2.3,0.9-4.1,2.3-5.6,4c-1.4,1.7-2.6,3.7-3.5,6.2c-0.9,2.4-1.5,5-1.8,7.8c-0.3,2.7-0.5,5.8-0.5,9.2v21.4
		c0,3.4,0.2,6.5,0.5,9.2c0.4,2.7,1,5.4,1.8,7.8c0.9,2.5,2.1,4.6,3.5,6.2c1.5,1.7,3.3,3,5.6,4c2.2,0.9,4.8,1.4,7.8,1.4
		c3.4,0,6.4-0.6,8.8-1.9c2.5-1.3,4.4-3.1,5.9-5.5c1.4-2.3,2.4-5.1,3-8.1c0.6-3,0.9-6.5,0.9-10.4v-3.7H411v3.7c0,1.8,0,3.4-0.1,4.8
		c-0.1,1.3-0.3,2.7-0.6,4.2c-0.3,1.4-0.7,2.5-1.2,3.3c-0.5,0.8-1.2,1.5-2,2c-0.8,0.5-1.9,0.8-3.1,0.8c-1.2,0-2.3-0.2-3.2-0.8
		c-0.9-0.5-1.6-1.2-2.2-2c-0.6-0.9-1-2-1.4-3.3c-0.4-1.4-0.6-2.8-0.8-4.2c-0.1-1.4-0.2-3-0.2-4.8v-26.8c0-2,0-3.8,0.1-5.1
		c0.1-1.3,0.3-2.7,0.6-4.2c0.3-1.3,0.7-2.4,1.3-3.2c0.5-0.7,1.2-1.3,2.2-1.8c0.9-0.5,2.1-0.7,3.5-0.7c1.1,0,2,0.1,2.8,0.4
		c0.7,0.2,1.3,0.6,1.8,1.1c0.5,0.6,0.9,1.2,1.3,1.8c0.3,0.6,0.6,1.5,0.8,2.5c0.2,1.1,0.3,2.2,0.4,3.1c0.1,1,0.1,2.3,0.1,3.7v3.4
		h11.5v-1c0-1.1,0-2,0-2.5C422.3,178.3,421.9,175.1,421.2,172.4z"/>
	<polygon class="st1" points="437.7,159.3 426.2,159.3 426.2,236.4 454.2,236.4 454.2,226.3 437.7,226.3 	"/>
	<path class="st1" d="M485.4,208.6c0,2.3,0,4.2-0.1,5.8c-0.1,1.5-0.3,3.1-0.7,4.9c-0.3,1.6-0.8,3-1.4,3.9c-0.6,0.9-1.4,1.7-2.4,2.3
		c-1,0.6-2.3,0.9-3.8,0.9c-1.5,0-2.8-0.3-3.8-0.9c-1-0.6-1.9-1.4-2.4-2.3c-0.6-1-1.1-2.3-1.4-3.9c-0.4-1.7-0.6-3.4-0.7-4.9
		c-0.1-1.5-0.1-3.5-0.1-5.8v-49.3H457v49.3c0,3.5,0.2,6.6,0.6,9.4c0.4,2.8,1,5.4,1.9,7.8c0.9,2.5,2.2,4.5,3.7,6.2
		c1.5,1.7,3.5,3,5.8,3.9c2.3,0.9,5,1.4,8,1.4c3,0,5.7-0.5,8-1.4c2.3-0.9,4.3-2.2,5.8-3.9c1.5-1.6,2.7-3.7,3.7-6.2
		c0.9-2.4,1.6-5,1.9-7.8c0.4-2.8,0.6-5.9,0.6-9.4v-49.3h-11.5V208.6z"/>
	<path class="st1" d="M529.1,195.3c2.5-1.2,4.4-2.8,5.7-4.9c1.7-2.6,2.6-6.4,2.6-11.3c0-3.3-0.5-6.3-1.4-8.9
		c-0.9-2.6-2.3-4.7-4.1-6.3c-1.8-1.6-3.8-2.8-6.2-3.5c-2.3-0.8-4.9-1.1-7.8-1.1h-14v77.1H520c5.7,0,10.2-2.1,13.5-6.1
		c3.2-4,4.9-9.5,4.9-16.3c0-5.5-1-9.8-2.9-12.8C534,198.7,531.8,196.7,529.1,195.3z M527.7,214c0,4.4-0.8,7.6-2.4,9.5
		c-1.5,1.9-4,2.8-7.4,2.8h-3.3v-24.7h3.3c3.5,0,5.9,0.9,7.4,2.8C526.9,206.3,527.7,209.6,527.7,214z M514.5,191.5v-22.1
		c1,0,1.9,0,2.5,0c0.8,0,1.8,0.1,3.1,0.2c1.2,0.1,2,0.3,2.6,0.5c0.6,0.2,1.3,0.6,2.1,1.1c0.7,0.4,1.2,0.9,1.5,1.5
		c0.4,0.7,0.7,1.6,1,2.6c0.3,1,0.4,2.3,0.4,3.7c0,8.3-3.2,12.4-9.8,12.4H514.5z"/>
	<path class="st1" d="M568.8,161.9h-4.3l-2.6,10.7c-0.3,1.6-0.7,3.4-1.1,5.4h-0.1c-0.4-2.2-0.7-3.8-1-5.5l-2.6-10.6h-4.5l-1.1,21.6
		h2.9l0.6-12.7c0.1-2,0.1-4.1,0.1-6h0.2c0.3,1.9,0.8,4.5,1.1,6.1l2.7,12.3h3.1l2.7-12c0.4-2,0.9-4.5,1.3-6.4h0.2
		c0.1,2.3,0.1,4.4,0.1,6l0.6,12.7h3L568.8,161.9z"/>
	<polygon class="st1" points="538.1,165.5 542.9,165.5 542.9,183.5 545.9,183.5 545.9,165.5 550.7,165.5 550.7,161.9 538.1,161.9 	
		"/>
</g>
<path class="st1" d="M1198.1,137.1H1185V44.8h-4.1v-5.6l-15-9.6l-2-18.8h-1.8l-2,19.2l-14.9,9.5v5.3h-4.1v92.3h-13.1v-29.7h-4.8
	l-11.3-14.8l-10.2,14.8h-5.9v29.7h-13.3v-2.3v-13.6v-18.9H1050v18.9h-14.2v15.9h-14.5v-15.9h-6.9V59.9h-5.9v-9.4h-7.8V33.9h-2.8
	V19.4h-2.4v14.5h-2.8v16.5h-7.8v9.4H979v61.4h-6.9v15.9H788.6c-1.7-6.9-6.2-11.3-13-12c-15.2-51.6-58.5-74.6-100.9-69.4
	c-43.3,5.3-76.9,42.1-79.8,86.3c-2.9,44.3,25.6,85.3,67.2,96.6c46.2,12.6,86.9-8.7,111.3-58.2c3.5-1.3,7.9,0.4,11.2-3.2
	c3-1.6,1.2-6.7,6.3-9h407.3l1.9-0.6C1215.5,162.5,1214.1,140.1,1198.1,137.1z M703.9,171.6l-33.6,0.9l-10.6-30.9l26.8-18.3
	l28.8,19.3L703.9,171.6z"/>
</svg>
