<?xml version="1.0" encoding="utf-8"?>
<!-- Generator: Adobe Illustrator 21.0.2, SVG Export Plug-In . SVG Version: 6.00 Build 0)  -->
<svg version="1.1" id="Layer_1" xmlns="http://www.w3.org/2000/svg" xmlns:xlink="http://www.w3.org/1999/xlink" x="0px" y="0px"
	 viewBox="0 0 600 600" style="enable-background:new 0 0 600 600;" xml:space="preserve">
<style type="text/css">
	.st0{display:none;}
	.st1{fill:#FFFFFF;}
</style>
<g id="CesOgM.tif" class="st0">
	
		<image style="display:inline;overflow:visible;enable-background:new    ;" width="271" height="208" id="Layer_0" xlink:href="D20638588CF243C6.png"  transform="matrix(1 0 0 1 166 196)">
	</image>
</g>
<g>
	<polygon class="st1" points="56,356.6 80,422.5 92,422.5 92,314.1 75.5,314.1 75.5,375.3 52.1,314.1 39.5,314.1 39.5,422.5 
		56,422.5 	"/>
	<polygon class="st1" points="157.2,409 129.8,409 129.8,373.1 149.3,373.1 149.3,359.7 129.8,359.7 129.8,327.6 157.2,327.6 
		157.2,314.1 112,314.1 112,422.5 157.2,422.5 	"/>
	<polygon class="st1" points="228.3,314.1 221.9,364.4 219.7,384.8 217.7,364.4 211.3,314.1 196.9,314.1 190.6,364.4 188.5,384.8 
		186.3,364.4 180,314.1 165.3,314.1 181.3,422.5 195.6,422.5 202,372.2 204.1,351.8 206.2,372.2 212.6,422.5 226.9,422.5 
		242.9,314.1 	"/>
	<polygon class="st1" points="312.6,422.5 329.8,422.5 329.8,387.4 353,314.1 335.6,314.1 321.2,364.6 306.8,314.1 289.4,314.1 
		312.6,387.4 	"/>
	<path class="st1" d="M408.6,412.5c2.2-3.2,3.8-7,4.8-11.3c1-4.2,1.5-9.2,1.5-14.7v-38.2c0-11.3-2.2-20.1-6.7-26.1
		c-4.5-6.1-11.9-9.2-21.9-9.2c-5.1,0-9.6,0.8-13.3,2.4c-3.8,1.6-6.8,4-9,7.2c-2.2,3.1-3.8,6.9-4.8,11.1s-1.5,9.1-1.5,14.7v38.2
		c0,5.6,0.5,10.5,1.5,14.8s2.6,8.1,4.8,11.2c2.2,3.2,5.2,5.7,9,7.4c3.7,1.7,8.2,2.5,13.4,2.5c5.1,0,9.6-0.9,13.3-2.5
		C403.4,418.3,406.4,415.7,408.6,412.5z M398.6,344.6v45.7c0,6-0.9,10.5-2.7,13.5c-1.7,2.9-4.9,4.3-9.5,4.3c-4.7,0-7.8-1.4-9.5-4.3
		c-1.8-3-2.7-7.5-2.7-13.5v-45.7c0-5.9,0.9-10.3,2.7-13.1c1.7-2.7,4.8-4,9.6-4c4.7,0,7.9,1.3,9.6,4
		C397.7,334.3,398.6,338.7,398.6,344.6z"/>
	<path class="st1" d="M447.3,373.1h9.6l15.3,49.3h17.2l-17.2-53.6c4.1-1.7,7.3-4.7,9.5-8.9c2.3-4.4,3.5-9.9,3.5-16.4
		c0-10.5-3-18.1-9-22.7c-5.9-4.5-14.7-6.8-26.2-6.8h-20v108.3h17.2v-49.2H447.3z M447.3,327.6h2.8c6,0,10.6,1.3,13.6,3.8
		c2.9,2.5,4.4,6.6,4.4,12.3c0,5.7-1.5,9.8-4.4,12.3c-3,2.5-7.5,3.8-13.6,3.8h-2.8V327.6z"/>
	<polygon class="st1" points="554.6,422.5 531.2,357 551.5,314.1 532.8,314.1 514.8,355.7 514.8,314.1 499.6,314.1 499.6,422.5 
		514.8,422.5 514.8,387.5 520.2,375 536,422.5 	"/>
	<path class="st1" d="M45.8,435.9L31.3,513h11.6l3.5-18.8h10.1L60,513h11.6L57,435.9H45.8z M55,484.1h-7.1l3.5-24L55,484.1z"/>
	<path class="st1" d="M88.8,435.9H73.1V513h15.6c7.2,0,12.4-2.1,15.5-6.3c3-4.1,4.5-10.4,4.5-18.9v-29.5c0-8.2-1.5-13.9-4.5-17.3
		C101.2,437.6,96,435.9,88.8,435.9z M84.6,446h4c1,0,1.8,0.1,2.6,0.2c0.8,0.1,1.4,0.3,2,0.5c0.5,0.2,0.9,0.5,1.3,0.8
		c0.4,0.5,0.8,0.9,1.1,1.3c0.3,0.3,0.5,0.9,0.7,1.5c0.2,0.8,0.4,1.5,0.5,2.1s0.2,1.4,0.3,2.5c0.1,1.1,0.1,2,0.1,2.8s0,1.9,0,3.3
		v25.8c0,2.2,0,3.8,0,4.9c0,1-0.1,2.3-0.3,3.9c-0.2,1.8-0.5,2.8-0.7,3.2c-0.4,0.7-0.9,1.5-1.5,2.3c-0.6,0.7-1.3,1.2-2.2,1.4
		c-1,0.3-2.3,0.4-3.7,0.4h-4.2C84.6,502.9,84.6,446,84.6,446z"/>
	<polygon class="st1" points="131.4,477 129.9,488 128.4,477 121.3,435.9 109.7,435.9 124.3,513 135.5,513 150.1,435.9 138.5,435.9 
			"/>
	<polygon class="st1" points="153,513 181,513 181,502.9 164.5,502.9 164.5,478.2 176.3,478.2 176.3,468.1 164.5,468.1 164.5,446 
		181,446 181,435.9 153,435.9 	"/>
	<polygon class="st1" points="213,477.4 198.2,435.9 189.3,435.9 189.3,513 200.8,513 200.8,468.3 216,513 224.5,513 224.5,435.9 
		213,435.9 	"/>
	<polygon class="st1" points="227.1,447.5 239,447.5 239,513 250.5,513 250.5,447.5 262.3,447.5 262.3,435.9 227.1,435.9 	"/>
	<path class="st1" d="M290.8,485.2c0,2.3,0,4.2-0.1,5.8c-0.1,1.5-0.3,3.1-0.6,4.9c-0.3,1.7-0.8,3-1.3,3.9s-1.3,1.7-2.2,2.3
		c-1.9,1.2-5.1,1.2-7,0c-1-0.6-1.7-1.4-2.2-2.3c-0.5-1-1-2.3-1.3-3.9c-0.3-1.7-0.5-3.4-0.6-4.9s-0.1-3.5-0.1-5.8v-49.3h-10.9v49.3
		c0,3.5,0.2,6.6,0.5,9.4c0.4,2.8,1,5.4,1.8,7.8c0.9,2.5,2,4.5,3.4,6.2s3.2,3,5.4,3.9c2.2,0.9,4.7,1.4,7.5,1.4s5.3-0.5,7.5-1.4
		c2.2-0.9,4-2.2,5.4-3.9c1.4-1.6,2.5-3.7,3.4-6.2c0.8-2.4,1.5-5,1.8-7.8s0.5-5.9,0.5-9.4v-49.3h-10.9L290.8,485.2L290.8,485.2z"/>
	<path class="st1" d="M338.5,468.7c1.5-3.1,2.2-7.1,2.2-11.7c0-7.5-1.9-12.9-5.7-16.2c-3.8-3.3-9.3-4.9-16.6-4.9h-12.9V513H317
		v-34.8h5.3l9.5,34.8h11.5l-10.8-38C335.2,473.8,337.2,471.6,338.5,468.7z M317.1,446h1.3c3.6,0,6.4,0.9,8.2,2.5
		c1.8,1.7,2.6,4.5,2.6,8.5s-0.9,6.8-2.6,8.5c-1.8,1.7-4.5,2.5-8.2,2.5h-1.3V446z"/>
	<polygon class="st1" points="348.6,513 376.6,513 376.6,502.9 360.1,502.9 360.1,478.2 371.9,478.2 371.9,468.1 360.1,468.1 
		360.1,446 376.6,446 376.6,435.9 348.6,435.9 	"/>
	<path class="st1" d="M441.3,449c-0.7-2.8-1.8-5.2-3.2-7.3c-1.4-2.2-3.4-3.8-5.8-4.9s-5.2-1.6-8.4-1.6c-2.9,0-5.5,0.5-7.8,1.4
		s-4.1,2.3-5.6,4c-1.4,1.7-2.6,3.7-3.5,6.2c-0.9,2.4-1.5,5-1.8,7.8c-0.3,2.7-0.5,5.8-0.5,9.2v21.4c0,3.4,0.2,6.5,0.5,9.2
		c0.4,2.7,1,5.4,1.8,7.8c0.9,2.5,2.1,4.6,3.5,6.2c1.5,1.7,3.3,3,5.6,4c2.2,0.9,4.8,1.4,7.8,1.4c3.4,0,6.4-0.6,8.8-1.9
		c2.5-1.3,4.4-3.1,5.9-5.5c1.4-2.3,2.4-5.1,3-8.1s0.9-6.5,0.9-10.4v-3.7H431v3.7c0,1.8,0,3.4-0.1,4.8c-0.1,1.3-0.3,2.7-0.6,4.2
		c-0.3,1.4-0.7,2.5-1.2,3.3s-1.2,1.5-2,2s-1.9,0.8-3.1,0.8s-2.3-0.2-3.2-0.8c-0.9-0.5-1.6-1.2-2.2-2c-0.6-0.9-1-2-1.4-3.3
		c-0.4-1.4-0.6-2.8-0.8-4.2c-0.1-1.4-0.2-3-0.2-4.8v-26.8c0-2,0-3.8,0.1-5.1c0.1-1.3,0.3-2.7,0.6-4.2c0.3-1.3,0.7-2.4,1.3-3.2
		c0.5-0.7,1.2-1.3,2.2-1.8c0.9-0.5,2.1-0.7,3.5-0.7c1.1,0,2,0.1,2.8,0.4c0.7,0.2,1.3,0.6,1.8,1.1c0.5,0.6,0.9,1.2,1.3,1.8
		c0.3,0.6,0.6,1.5,0.8,2.5c0.2,1.1,0.3,2.2,0.4,3.1c0.1,1,0.1,2.3,0.1,3.7v3.4h11.5v-1c0-1.1,0-2,0-2.5
		C442.4,454.9,442,451.7,441.3,449z"/>
	<polygon class="st1" points="457.8,435.9 446.3,435.9 446.3,513 474.4,513 474.4,502.9 457.8,502.9 	"/>
	<path class="st1" d="M505.5,485.2c0,2.3,0,4.2-0.1,5.8c-0.1,1.5-0.3,3.1-0.7,4.9c-0.3,1.6-0.8,3-1.4,3.9s-1.4,1.7-2.4,2.3
		c-1,0.6-2.3,0.9-3.8,0.9s-2.8-0.3-3.8-0.9s-1.9-1.4-2.4-2.3c-0.6-1-1.1-2.3-1.4-3.9c-0.4-1.7-0.6-3.4-0.7-4.9s-0.1-3.5-0.1-5.8
		v-49.3h-11.5v49.3c0,3.5,0.2,6.6,0.6,9.4s1,5.4,1.9,7.8c0.9,2.5,2.2,4.5,3.7,6.2s3.5,3,5.8,3.9c2.3,0.9,5,1.4,8,1.4s5.7-0.5,8-1.4
		c2.3-0.9,4.3-2.2,5.8-3.9c1.5-1.6,2.7-3.7,3.7-6.2c0.9-2.4,1.6-5,1.9-7.8c0.4-2.8,0.6-5.9,0.6-9.4v-49.3h-11.5v49.3H505.5z"/>
	<path class="st1" d="M549.2,471.8c2.5-1.2,4.4-2.8,5.7-4.9c1.7-2.6,2.6-6.4,2.6-11.3c0-3.3-0.5-6.3-1.4-8.9s-2.3-4.7-4.1-6.3
		c-1.8-1.6-3.8-2.8-6.2-3.5c-2.3-0.8-4.9-1.1-7.8-1.1h-14V513h16.2c5.7,0,10.2-2.1,13.5-6.1c3.2-4,4.9-9.5,4.9-16.3
		c0-5.5-1-9.8-2.9-12.8C554.1,475.3,551.9,473.3,549.2,471.8z M547.8,490.5c0,4.4-0.8,7.6-2.4,9.5c-1.5,1.9-4,2.8-7.4,2.8h-3.3
		v-24.7h3.3c3.5,0,5.9,0.9,7.4,2.8C547,482.9,547.8,486.1,547.8,490.5z M534.6,468.1V446c1,0,1.9,0,2.5,0c0.8,0,1.8,0.1,3.1,0.2
		c1.2,0.1,2,0.3,2.6,0.5s1.3,0.6,2.1,1.1c0.7,0.4,1.2,0.9,1.5,1.5c0.4,0.7,0.7,1.6,1,2.6s0.4,2.3,0.4,3.7c0,8.3-3.2,12.4-9.8,12.4
		L534.6,468.1L534.6,468.1z"/>
	<path class="st1" d="M588.9,438.5h-4.3l-2.6,10.7c-0.3,1.6-0.7,3.4-1.1,5.4h-0.1c-0.4-2.2-0.7-3.8-1-5.5l-2.6-10.6h-4.5l-1.1,21.6
		h2.9l0.6-12.7c0.1-2,0.1-4.1,0.1-6h0.2c0.3,1.9,0.8,4.5,1.1,6.1l2.7,12.3h3.1l2.7-12c0.4-2,0.9-4.5,1.3-6.4h0.2
		c0.1,2.3,0.1,4.4,0.1,6l0.6,12.7h3L588.9,438.5z"/>
	<polygon class="st1" points="558.2,442.1 563,442.1 563,460.1 566,460.1 566,442.1 570.8,442.1 570.8,438.5 558.2,438.5 	"/>
</g>
<path class="st1" d="M549.1,195h-11.5v-80.6H534v-4.9l-13.1-8.4l-1.7-16.4h-1.5l-1.8,16.7l-13,8.3v4.6h-3.6V195h-11.5v-26h-4.2
	l-9.8-12.9l-8.9,12.9h-5.1v26H448v-2v-11.9v-16.5h-28.4v16.5h-12.4V195h-12.7v-13.9h-6.1v-53.6h-5.2v-8.3h-6.8v-14.4H374V92.2h-2
	v12.6h-2.4v14.4h-6.8v8.3h-5.2v53.6h-6.1V195H191.1c-1.4-6.1-5.4-9.8-11.3-10.4c-13.3-45.1-51.1-65.2-88.2-60.7
	c-37.9,4.6-67.2,36.8-69.7,75.4c-2.5,38.7,22.4,74.5,58.7,84.4c40.4,11,76-7.6,97.2-50.9c3.1-1.1,6.9,0.4,9.8-2.8
	c2.6-1.4,1.1-5.8,5.5-7.9H549l1.7-0.5C564.3,217.2,563,197.6,549.1,195z M117.1,225.2L87.7,226l-9.2-27l23.4-16l25.2,16.9
	L117.1,225.2z"/>
</svg>
